<mxfile host="app.diagrams.net" agent="Mozilla/5.0 (Macintosh; Intel Mac OS X 10_15_7) AppleWebKit/605.1.15 (KHTML, like Gecko) Version/18.3.1 Safari/605.1.15" version="28.0.7">
  <diagram name="Page-1" id="wecw0V0WTSmMkXdD_H8e">
    <mxGraphModel dx="1426" dy="832" grid="1" gridSize="10" guides="1" tooltips="1" connect="1" arrows="1" fold="1" page="1" pageScale="1" pageWidth="827" pageHeight="1169" math="0" shadow="0">
      <root>
        <mxCell id="0" />
        <mxCell id="1" parent="0" />
        <mxCell id="Sj3ZuSewM-TSqzSfG-fM-1" value="" style="rounded=0;whiteSpace=wrap;html=1;" vertex="1" parent="1">
          <mxGeometry x="130" y="213" width="980" height="454.5" as="geometry" />
        </mxCell>
        <mxCell id="Sj3ZuSewM-TSqzSfG-fM-2" value="&lt;div&gt;&lt;span&gt;&lt;span style=&quot;font-size: 13pt; font-family: &amp;quot;Times New Roman&amp;quot;, serif; background-color: transparent; font-variant-numeric: normal; font-variant-east-asian: normal; font-variant-alternates: normal; font-variant-position: normal; font-variant-emoji: normal; vertical-align: baseline; white-space-collapse: preserve;&quot;&gt;&lt;b&gt;&lt;br&gt;&lt;/b&gt;&lt;/span&gt;&lt;/span&gt;&lt;/div&gt;&lt;span id=&quot;docs-internal-guid-93dfedbd-7fff-06d4-5bbd-a296a520875c&quot;&gt;&lt;span style=&quot;font-size: 13pt; font-family: &amp;quot;Times New Roman&amp;quot;, serif; background-color: transparent; font-variant-numeric: normal; font-variant-east-asian: normal; font-variant-alternates: normal; font-variant-position: normal; font-variant-emoji: normal; vertical-align: baseline; white-space-collapse: preserve;&quot;&gt;&lt;b&gt;SA&lt;/b&gt;&lt;/span&gt;&lt;/span&gt;" style="shape=actor;whiteSpace=wrap;html=1;" vertex="1" parent="1">
          <mxGeometry x="1050" y="238" width="50" height="63" as="geometry" />
        </mxCell>
        <mxCell id="Sj3ZuSewM-TSqzSfG-fM-3" value="Người dùng (SA)" style="text;strokeColor=none;fillColor=none;spacingLeft=4;spacingRight=4;overflow=hidden;rotatable=0;points=[[0,0.5],[1,0.5]];portConstraint=eastwest;fontSize=26;whiteSpace=wrap;html=1;fontStyle=1" vertex="1" parent="1">
          <mxGeometry x="802" y="220" width="228" height="40" as="geometry" />
        </mxCell>
        <mxCell id="Sj3ZuSewM-TSqzSfG-fM-4" value="Nhóm ký" style="text;html=1;align=center;verticalAlign=middle;whiteSpace=wrap;rounded=0;fontSize=26;fontStyle=1" vertex="1" parent="1">
          <mxGeometry x="143" y="224" width="116" height="30" as="geometry" />
        </mxCell>
        <mxCell id="Sj3ZuSewM-TSqzSfG-fM-5" value="" style="endArrow=classic;html=1;rounded=0;" edge="1" parent="1">
          <mxGeometry relative="1" as="geometry">
            <mxPoint x="764" y="510" as="sourcePoint" />
            <mxPoint x="508.5" y="510" as="targetPoint" />
          </mxGeometry>
        </mxCell>
        <mxCell id="Sj3ZuSewM-TSqzSfG-fM-6" value="" style="endArrow=classic;html=1;rounded=0;" edge="1" parent="1">
          <mxGeometry relative="1" as="geometry">
            <mxPoint x="502" y="560" as="sourcePoint" />
            <mxPoint x="753" y="560" as="targetPoint" />
          </mxGeometry>
        </mxCell>
        <mxCell id="Sj3ZuSewM-TSqzSfG-fM-7" value="&lt;span style=&quot;font-weight: normal;&quot;&gt;.....&lt;/span&gt;" style="text;strokeColor=none;fillColor=none;spacingLeft=4;spacingRight=4;overflow=hidden;rotatable=0;points=[[0,0.5],[1,0.5]];portConstraint=eastwest;fontSize=26;whiteSpace=wrap;html=1;fontStyle=1" vertex="1" parent="1">
          <mxGeometry x="298" y="301" width="57" height="40" as="geometry" />
        </mxCell>
        <mxCell id="Sj3ZuSewM-TSqzSfG-fM-8" value="" style="rounded=0;whiteSpace=wrap;html=1;" vertex="1" parent="1">
          <mxGeometry x="440" y="120" width="410" height="70" as="geometry" />
        </mxCell>
        <mxCell id="Sj3ZuSewM-TSqzSfG-fM-9" value="&lt;font style=&quot;font-size: 25px;&quot;&gt;$$z&#39;_i$$&lt;/font&gt;" style="text;html=1;align=center;verticalAlign=middle;resizable=0;points=[];autosize=1;strokeColor=none;fillColor=none;" vertex="1" parent="1">
          <mxGeometry x="569" y="520" width="120" height="40" as="geometry" />
        </mxCell>
        <mxCell id="Sj3ZuSewM-TSqzSfG-fM-10" value="&lt;font style=&quot;font-size: 23px;&quot;&gt;$$z&#39;=\sum_{i\in S} z&#39;_i,$$&lt;/font&gt;" style="text;html=1;align=center;verticalAlign=middle;resizable=0;points=[];autosize=1;strokeColor=none;fillColor=none;" vertex="1" parent="1">
          <mxGeometry x="725" y="565" width="280" height="40" as="geometry" />
        </mxCell>
        <mxCell id="Sj3ZuSewM-TSqzSfG-fM-11" value="&lt;font style=&quot;font-size: 23px;&quot;&gt;$$z=z&#39;+a,$$&amp;nbsp;&lt;/font&gt;" style="text;html=1;align=center;verticalAlign=middle;resizable=0;points=[];autosize=1;strokeColor=none;fillColor=none;" vertex="1" parent="1">
          <mxGeometry x="940" y="566" width="150" height="40" as="geometry" />
        </mxCell>
        <mxCell id="Sj3ZuSewM-TSqzSfG-fM-12" value="&lt;font style=&quot;font-size: 23px;&quot;&gt;$$(B, \rho_i, c&#39;)$$&lt;/font&gt;" style="text;html=1;align=center;verticalAlign=middle;resizable=0;points=[];autosize=1;strokeColor=none;fillColor=none;" vertex="1" parent="1">
          <mxGeometry x="550" y="470" width="200" height="40" as="geometry" />
        </mxCell>
        <mxCell id="Sj3ZuSewM-TSqzSfG-fM-13" value="&lt;font style=&quot;font-size: 23px;&quot;&gt;$$R_{grp}:=\Pi_{i\in S}D_i\cdot E_i^{\rho_i}$$&amp;nbsp;&lt;/font&gt;" style="text;html=1;align=center;verticalAlign=middle;resizable=0;points=[];autosize=1;strokeColor=none;fillColor=none;" vertex="1" parent="1">
          <mxGeometry x="670" y="380" width="490" height="40" as="geometry" />
        </mxCell>
        <mxCell id="Sj3ZuSewM-TSqzSfG-fM-14" value="&lt;font style=&quot;font-size: 23px;&quot;&gt;$$R=R_{grp}\cdot g^{-a}\cdot Y^{-b}$$&lt;/font&gt;" style="text;html=1;align=center;verticalAlign=middle;resizable=0;points=[];autosize=1;strokeColor=none;fillColor=none;" vertex="1" parent="1">
          <mxGeometry x="705" y="411" width="420" height="40" as="geometry" />
        </mxCell>
        <mxCell id="Sj3ZuSewM-TSqzSfG-fM-15" value="&lt;font style=&quot;font-size: 23px;&quot;&gt;$$c=H(R, Y, m)$$&lt;/font&gt;" style="text;html=1;align=center;verticalAlign=middle;resizable=0;points=[];autosize=1;strokeColor=none;fillColor=none;" vertex="1" parent="1">
          <mxGeometry x="786" y="444" width="210" height="40" as="geometry" />
        </mxCell>
        <mxCell id="Sj3ZuSewM-TSqzSfG-fM-16" value="&lt;font style=&quot;font-size: 23px;&quot;&gt;$$c&#39;=c+b$$&lt;/font&gt;" style="text;html=1;align=center;verticalAlign=middle;resizable=0;points=[];autosize=1;strokeColor=none;fillColor=none;" vertex="1" parent="1">
          <mxGeometry x="786" y="480" width="140" height="40" as="geometry" />
        </mxCell>
        <mxCell id="Sj3ZuSewM-TSqzSfG-fM-17" value="&lt;font style=&quot;font-size: 23px;&quot;&gt;$$B=\{(i, D_i, E_i)\}_{i\in S}$$&lt;/font&gt;" style="text;html=1;align=center;verticalAlign=middle;resizable=0;points=[];autosize=1;strokeColor=none;fillColor=none;" vertex="1" parent="1">
          <mxGeometry x="752" y="283" width="320" height="40" as="geometry" />
        </mxCell>
        <mxCell id="Sj3ZuSewM-TSqzSfG-fM-18" value="&lt;font style=&quot;font-size: 23px;&quot;&gt;$$\rho_i=H(i, m, B)$$&lt;/font&gt;" style="text;html=1;align=center;verticalAlign=middle;resizable=0;points=[];autosize=1;strokeColor=none;fillColor=none;" vertex="1" parent="1">
          <mxGeometry x="770" y="323" width="240" height="40" as="geometry" />
        </mxCell>
        <mxCell id="Sj3ZuSewM-TSqzSfG-fM-19" value="&lt;font style=&quot;font-size: 23px;&quot;&gt;$$\sigma=(R_{grp}, z)$$&lt;/font&gt;" style="text;html=1;align=center;verticalAlign=middle;resizable=0;points=[];autosize=1;strokeColor=none;fillColor=none;" vertex="1" parent="1">
          <mxGeometry x="740" y="620" width="270" height="40" as="geometry" />
        </mxCell>
        <mxCell id="Sj3ZuSewM-TSqzSfG-fM-20" value="&lt;font style=&quot;font-size: 23px;&quot;&gt;$$\{D_{ij}=g^{d_{ij}}, E_{ij}=g^{e_{ij}} \}_{i=0,\cdots, n-1}^{j=0, \cdots, t-1}$$&lt;/font&gt;" style="text;html=1;align=center;verticalAlign=middle;resizable=0;points=[];autosize=1;strokeColor=none;fillColor=none;" vertex="1" parent="1">
          <mxGeometry x="250" y="130" width="780" height="40" as="geometry" />
        </mxCell>
        <mxCell id="Sj3ZuSewM-TSqzSfG-fM-21" value="" style="endArrow=classic;html=1;rounded=0;entryX=0.222;entryY=0.95;entryDx=0;entryDy=0;entryPerimeter=0;" edge="1" parent="1" target="Sj3ZuSewM-TSqzSfG-fM-20">
          <mxGeometry width="50" height="50" relative="1" as="geometry">
            <mxPoint x="301.5" y="267.5" as="sourcePoint" />
            <mxPoint x="351.5" y="217.5" as="targetPoint" />
          </mxGeometry>
        </mxCell>
        <mxCell id="Sj3ZuSewM-TSqzSfG-fM-22" value="&lt;font style=&quot;font-size: 20px;&quot;&gt;Tiền xử lý&lt;/font&gt;" style="text;html=1;align=center;verticalAlign=middle;resizable=0;points=[];autosize=1;strokeColor=none;fillColor=none;rotation=-40;" vertex="1" parent="1">
          <mxGeometry x="298" y="180" width="110" height="40" as="geometry" />
        </mxCell>
        <mxCell id="Sj3ZuSewM-TSqzSfG-fM-23" value="$$P_0$$" style="shape=umlActor;verticalLabelPosition=bottom;verticalAlign=top;html=1;outlineConnect=0;" vertex="1" parent="1">
          <mxGeometry x="186" y="287" width="30" height="60" as="geometry" />
        </mxCell>
        <mxCell id="Sj3ZuSewM-TSqzSfG-fM-24" value="$$P_1$$" style="shape=umlActor;verticalLabelPosition=bottom;verticalAlign=top;html=1;outlineConnect=0;" vertex="1" parent="1">
          <mxGeometry x="240" y="287" width="30" height="60" as="geometry" />
        </mxCell>
        <mxCell id="Sj3ZuSewM-TSqzSfG-fM-25" value="$$P_{n-1}$$" style="shape=umlActor;verticalLabelPosition=bottom;verticalAlign=top;html=1;outlineConnect=0;" vertex="1" parent="1">
          <mxGeometry x="355" y="287" width="30" height="60" as="geometry" />
        </mxCell>
        <mxCell id="Sj3ZuSewM-TSqzSfG-fM-26" value="" style="endArrow=classic;html=1;rounded=0;entryX=0.671;entryY=0.025;entryDx=0;entryDy=0;entryPerimeter=0;" edge="1" parent="1" target="Sj3ZuSewM-TSqzSfG-fM-3">
          <mxGeometry width="50" height="50" relative="1" as="geometry">
            <mxPoint x="860" y="170" as="sourcePoint" />
            <mxPoint x="910" y="120" as="targetPoint" />
          </mxGeometry>
        </mxCell>
        <mxCell id="Sj3ZuSewM-TSqzSfG-fM-27" value="&lt;font style=&quot;font-size: 20px;&quot;&gt;Lưu về dùng&lt;/font&gt;" style="text;html=1;align=center;verticalAlign=middle;resizable=0;points=[];autosize=1;strokeColor=none;fillColor=none;rotation=30;" vertex="1" parent="1">
          <mxGeometry x="865" y="170" width="140" height="40" as="geometry" />
        </mxCell>
        <mxCell id="Sj3ZuSewM-TSqzSfG-fM-28" value="$$P_i$$" style="shape=umlActor;verticalLabelPosition=bottom;verticalAlign=top;html=1;outlineConnect=0;" vertex="1" parent="1">
          <mxGeometry x="170" y="410" width="30" height="60" as="geometry" />
        </mxCell>
      </root>
    </mxGraphModel>
  </diagram>
</mxfile>
